<?xml version="1.0" encoding="UTF-8"?>
<svg xmlns="http://www.w3.org/2000/svg" xmlns:xlink="http://www.w3.org/1999/xlink" width="20pt" height="20pt" viewBox="0 0 20 20" version="1.1">
<g id="surface1">
<path  d="M 13.773438 1.097656 C 12.964844 0.292969 11.660156 0.292969 10.855469 1.097656 L 10.125 1.832031 L 2.347656 9.605469 L 2.332031 9.621094 C 2.324219 9.628906 2.324219 9.632812 2.320312 9.632812 C 2.3125 9.644531 2.300781 9.65625 2.292969 9.667969 C 2.292969 9.671875 2.289062 9.671875 2.289062 9.675781 C 2.28125 9.691406 2.277344 9.699219 2.269531 9.710938 C 2.265625 9.714844 2.265625 9.71875 2.261719 9.722656 C 2.257812 9.734375 2.253906 9.742188 2.246094 9.753906 C 2.246094 9.757812 2.242188 9.757812 2.242188 9.761719 L 0.519531 14.953125 C 0.46875 15.101562 0.503906 15.265625 0.617188 15.375 C 0.695312 15.449219 0.800781 15.492188 0.910156 15.492188 C 0.957031 15.492188 1 15.484375 1.042969 15.472656 L 6.226562 13.742188 C 6.230469 13.742188 6.230469 13.742188 6.234375 13.738281 C 6.25 13.734375 6.261719 13.730469 6.273438 13.722656 C 6.277344 13.722656 6.277344 13.722656 6.28125 13.71875 C 6.292969 13.710938 6.308594 13.703125 6.320312 13.695312 C 6.335938 13.683594 6.347656 13.671875 6.359375 13.664062 C 6.363281 13.660156 6.367188 13.660156 6.367188 13.65625 C 6.371094 13.652344 6.378906 13.648438 6.382812 13.640625 L 14.890625 5.132812 C 15.695312 4.324219 15.695312 3.019531 14.890625 2.214844 Z M 6.09375 12.773438 L 3.222656 9.898438 L 10.414062 2.707031 L 13.285156 5.582031 Z M 2.816406 10.664062 L 5.328125 13.175781 L 1.558594 14.429688 Z M 14.308594 4.554688 L 13.871094 4.996094 L 11 2.121094 L 11.441406 1.679688 C 11.925781 1.199219 12.707031 1.199219 13.191406 1.679688 L 14.316406 2.804688 C 14.792969 3.289062 14.792969 4.070312 14.308594 4.554688 Z M 14.308594 4.554688 "/>
</g>
</svg>
