<?xml version="1.0" encoding="iso-8859-1"?>
<!-- Generator: Adobe Illustrator 18.0.0, SVG Export Plug-In . SVG Version: 6.00 Build 0)  -->
<!DOCTYPE svg PUBLIC "-//W3C//DTD SVG 1.1//EN" "http://www.w3.org/Graphics/SVG/1.1/DTD/svg11.dtd">
<svg version="1.1" id="Capa_1" xmlns="http://www.w3.org/2000/svg" xmlns:xlink="http://www.w3.org/1999/xlink" x="0px" y="0px"
	 viewBox="0 0 297 297" style="enable-background:new 0 0 297 297;" xml:space="preserve">
<g>
	<ellipse cx="239.879" cy="148.467" rx="12.434" ry="12.92"/>
	<ellipse cx="239.879" cy="188.523" rx="12.434" ry="12.92"/>
	<path d="M12.894,58.802C5.738,58.802,0,65.051,0,72.207v153.035c0,7.156,5.738,12.956,12.894,12.956h271.15
		c7.156,0,12.956-5.801,12.956-12.956V72.207c0-7.156-5.801-13.405-12.956-13.405H12.894z M25.913,84.715h148.029
		c5.359,19.933,8.175,41.224,8.175,63.4c0,22.484-2.889,44.611-8.387,64.17H25.913V84.715z M271.087,212.285h-70.572
		c4.93-19.975,7.514-41.976,7.514-64.17c0-21.897-2.519-43.467-7.326-63.4h70.384V212.285z"/>
	<path d="M226.527,121.591h25.677c7.156,0,12.956-5.801,12.956-12.956c0-7.156-5.801-12.956-12.956-12.956h-25.677
		c-7.156,0-12.956,5.801-12.956,12.956C213.571,115.79,219.372,121.591,226.527,121.591z"/>
</g>
<g>
</g>
<g>
</g>
<g>
</g>
<g>
</g>
<g>
</g>
<g>
</g>
<g>
</g>
<g>
</g>
<g>
</g>
<g>
</g>
<g>
</g>
<g>
</g>
<g>
</g>
<g>
</g>
<g>
</g>
</svg>
