<svg xmlns="http://www.w3.org/2000/svg" xmlns:xlink="http://www.w3.org/1999/xlink">
    <symbol id='fridge' viewbox="0 0 60 60">
        <g>
            <path d="M43,7h-2c-0.552,0-1,0.447-1,1s0.448,1,1,1h2c0.552,0,1-0.447,1-1S43.552,7,43,7z"/>
            <path d="M14,22h-3v14h12V22h-3H14z M18,24v3h-2v-3H18z M21,24v10h-8V24h1v5h6v-5H21z"/>
            <path d="M26,20c-0.552,0-1,0.447-1,1v16c0,0.553,0.448,1,1,1s1-0.447,1-1V21C27,20.447,26.552,20,26,20z"/>
            <path d="M34,20c-0.552,0-1,0.447-1,1v16c0,0.553,0.448,1,1,1s1-0.447,1-1V21C35,20.447,34.552,20,34,20z"/>
            <path d="M21,45c0,0.553,0.448,1,1,1h16c0.552,0,1-0.447,1-1s-0.448-1-1-1H22C21.448,44,21,44.447,21,45z"/>
            <path d="M51.83,0H8.17C6.974,0,6,0.974,6,2.17V40v2v15.07C6,58.686,7.314,60,8.93,60H51.07c1.615,0,2.93-1.314,2.93-2.93V42v-2
                        		V2.17C54,0.974,53.026,0,51.83,0z M8,2.17C8,2.076,8.076,2,8.17,2H29v38H8V2.17z M52,57.07c0,0.513-0.417,0.93-0.93,0.93H8.93
                        		C8.417,58,8,57.583,8,57.07V42h44V57.07z M31,40V2h20.83C51.924,2,52,2.076,52,2.17V40H31z"/>
        </g>
    </symbol>
    <symbol id='microwave' viewbox="0 0 60 60">    
           <g id="surface1">
<path d="M 50.972656 29.992188 C 50.972656 28.550781 49.847656 27.382812 48.460938 27.382812 C 47.074219 27.382812 45.949219 28.550781 45.949219 29.992188 C 45.949219 31.433594 47.074219 32.601562 48.460938 32.601562 C 49.847656 32.601562 50.972656 31.433594 50.972656 29.992188 Z M 50.972656 29.992188 "/>
<path d="M 50.972656 38.085938 C 50.972656 36.644531 49.847656 35.476562 48.460938 35.476562 C 47.074219 35.476562 45.949219 36.644531 45.949219 38.085938 C 45.949219 39.527344 47.074219 40.695312 48.460938 40.695312 C 49.847656 40.695312 50.972656 39.527344 50.972656 38.085938 Z M 50.972656 38.085938 "/>
<path d="M 2.605469 11.878906 C 1.160156 11.878906 0 13.140625 0 14.585938 L 0 45.503906 C 0 46.949219 1.160156 48.121094 2.605469 48.121094 L 57.382812 48.121094 C 58.828125 48.121094 60 46.949219 60 45.503906 L 60 14.585938 C 60 13.140625 58.828125 11.878906 57.382812 11.878906 Z M 5.234375 17.113281 L 35.140625 17.113281 C 36.222656 21.140625 36.792969 25.441406 36.792969 29.921875 C 36.792969 34.464844 36.207031 38.933594 35.097656 42.886719 L 5.234375 42.886719 Z M 54.765625 42.886719 L 40.507812 42.886719 C 41.503906 38.851562 42.027344 34.40625 42.027344 29.921875 C 42.027344 25.5 41.515625 21.140625 40.546875 17.113281 L 54.765625 17.113281 Z M 54.765625 42.886719 "/>
<path d="M 45.761719 24.5625 L 50.949219 24.5625 C 52.394531 24.5625 53.566406 23.390625 53.566406 21.945312 C 53.566406 20.5 52.394531 19.328125 50.949219 19.328125 L 45.761719 19.328125 C 44.316406 19.328125 43.144531 20.5 43.144531 21.945312 C 43.144531 23.390625 44.316406 24.5625 45.761719 24.5625 Z M 45.761719 24.5625 "/>
</g>
    </symbol>
</svg>
