<svg xmlns="http://www.w3.org/2000/svg" width="20px" xmlns:xlink="http://www.w3.org/1999/xlink">
    <symbol id='home' viewBox="0 0 24 24">
        <path d="M11.9999 4.63833L17.8333 9.88833V19H15.4999V12H8.49992V19H6.16659V9.88833L11.9999 4.63833ZM11.9999 1.5L0.333252 12H3.83325V21.3333H10.8333V14.3333H13.1666V21.3333H20.1666V12H23.6666L11.9999 1.5Z"/>
    </symbol>    
    <symbol id='logout' viewBox="0 0 21 21">
        <path d="M9.33103 0.0214844C11.7103 0.0214844 13.6522 1.89542 13.7612 4.24772L13.766 4.45648V5.38948C13.766 5.8037 13.4302 6.13948 13.016 6.13948C12.6363 6.13948 12.3225 5.85733 12.2729 5.49125L12.266 5.38948V4.45648C12.266 2.89358 11.044 1.61575 9.50347 1.52647L9.33103 1.52148H4.45603C2.89398 1.52148 1.61629 2.74362 1.52702 4.28406L1.52203 4.45648V15.5865C1.52203 17.1493 2.74394 18.4272 4.28369 18.5165L4.45603 18.5215H9.34103C10.8984 18.5215 12.1721 17.3039 12.2611 15.7693L12.266 15.5975V14.6545C12.266 14.2403 12.6018 13.9045 13.016 13.9045C13.3957 13.9045 13.7095 14.1866 13.7592 14.5527L13.766 14.6545V15.5975C13.766 17.9687 11.8992 19.9046 9.55539 20.0164L9.34103 20.0215H4.45603C2.07759 20.0215 0.135874 18.1474 0.0268609 15.7952L0.0220337 15.5865V4.45648C0.0220337 2.07743 1.89579 0.135347 4.24734 0.0263125L4.45603 0.0214844H9.33103ZM17.3261 6.50234L17.4104 6.57478L20.3384 9.48978C20.3647 9.51594 20.3879 9.54256 20.4091 9.57073L20.3384 9.48978C20.3689 9.52019 20.3963 9.55258 20.4205 9.58653C20.4376 9.61028 20.4534 9.63538 20.4677 9.66142C20.4703 9.66648 20.4729 9.67145 20.4755 9.67645C20.4881 9.70042 20.4994 9.72529 20.5093 9.75084C20.5133 9.76202 20.5174 9.77334 20.5211 9.78473C20.5284 9.80575 20.5346 9.8274 20.5397 9.84942C20.5421 9.86118 20.5446 9.87286 20.5467 9.88457C20.5509 9.90501 20.5539 9.9261 20.5559 9.94745C20.5571 9.96231 20.5581 9.97701 20.5587 9.99174C20.5593 10.0016 20.5595 10.0115 20.5595 10.0214L20.5587 10.0497C20.5581 10.0651 20.5571 10.0805 20.5555 10.0958L20.5595 10.0214C20.5595 10.0682 20.5552 10.1141 20.547 10.1585C20.5446 10.1696 20.5421 10.1814 20.5394 10.193C20.5344 10.2162 20.528 10.2387 20.5206 10.2607C20.5168 10.2709 20.513 10.2813 20.5091 10.2915C20.4998 10.3164 20.489 10.3405 20.4769 10.3639C20.4739 10.3692 20.4708 10.3751 20.4676 10.381C20.4332 10.4443 20.39 10.5015 20.3399 10.5517L20.3385 10.5527L17.4105 13.4687C17.117 13.761 16.6421 13.76 16.3498 13.4665C16.0841 13.1997 16.0607 12.783 16.2792 12.4898L16.352 12.4059L17.991 10.7705L7.76853 10.7714C7.35432 10.7714 7.01853 10.4356 7.01853 10.0214C7.01853 9.64169 7.30069 9.32789 7.66676 9.27823L7.76853 9.27139L17.993 9.27048L16.3521 7.63779C16.0852 7.37212 16.0601 6.95551 16.2773 6.66142L16.3497 6.57714C16.6154 6.31028 17.032 6.28514 17.3261 6.50234Z"/>
    </symbol>
    <symbol id='placeholder' viewBox="0 0 36 36">
        <path d="M22.54 17L19 13.46L20.41 12.05L22.53 14.17L26.77 9.92999L28.18 11.34L22.54 17ZM17 13H8V15H17V13ZM27 19.41L25.59 18L23 20.59L20.41 18L19 19.41L21.59 22L19 24.59L20.41 26L23 23.41L25.59 26L27 24.59L24.41 22L27 19.41ZM17 21H8V23H17V21Z"/>
    </symbol>
    <symbol id='vector' viewBox="0 0 20 20">
        <path d="M10 0C4.48 0 0 4.48 0 10C0 15.52 4.48 20 10 20C15.52 20 20 15.52 20 10C20 4.48 15.52 0 10 0ZM5.07 16.28C5.5 15.38 8.12 14.5 10 14.5C11.88 14.5 14.51 15.38 14.93 16.28C13.57 17.36 11.86 18 10 18C8.14 18 6.43 17.36 5.07 16.28ZM16.36 14.83C14.93 13.09 11.46 12.5 10 12.5C8.54 12.5 5.07 13.09 3.64 14.83C2.62 13.49 2 11.82 2 10C2 5.59 5.59 2 10 2C14.41 2 18 5.59 18 10C18 11.82 17.38 13.49 16.36 14.83ZM10 4C8.06 4 6.5 5.56 6.5 7.5C6.5 9.44 8.06 11 10 11C11.94 11 13.5 9.44 13.5 7.5C13.5 5.56 11.94 4 10 4ZM10 9C9.17 9 8.5 8.33 8.5 7.5C8.5 6.67 9.17 6 10 6C10.83 6 11.5 6.67 11.5 7.5C11.5 8.33 10.83 9 10 9Z"/>
    </symbol>
    <symbol id='comm' viewBox="0 0 64 64">    
		<path d="m53.223 15.782c2.263-1.415 3.777-3.922 3.777-6.782 0-4.411-3.589-8-8-8s-8 3.589-8 8c0 2.855 1.508 5.358 3.765 6.774-2.562.969-4.749 2.804-6.15 5.223-.742-.493-1.546-.896-2.392-1.216 2.263-1.414 3.777-3.921 3.777-6.781 0-4.411-3.589-8-8-8s-8 3.589-8 8c0 2.86 1.514 5.367 3.777 6.782-.846.319-1.65.723-2.392 1.216-1.401-2.419-3.587-4.254-6.149-5.223 2.256-1.416 3.764-3.92 3.764-6.775 0-4.411-3.589-8-8-8s-8 3.589-8 8c0 2.86 1.514 5.367 3.777 6.782-4.537 1.714-7.777 6.089-7.777 11.218v8c0 2.206 1.794 4 4 4h1v16c0 2.206 1.794 4 4 4 1.201 0 2.266-.542 3-1.382.734.84 1.799 1.382 3 1.382 2.206 0 4-1.794 4-4v-12.556c.591.344 1.268.556 2 .556h1v16c0 2.206 1.794 4 4 4 1.201 0 2.266-.542 3-1.382.734.84 1.799 1.382 3 1.382 2.206 0 4-1.794 4-4v-16h1c.732 0 1.409-.212 2-.556v12.556c0 2.206 1.794 4 4 4 1.201 0 2.266-.542 3-1.382.734.84 1.799 1.382 3 1.382 2.206 0 4-1.794 4-4v-16h1c2.206 0 4-1.794 4-4v-8c0-5.129-3.24-9.504-7.777-11.218zm-6.379 1.48c.702-.156 1.419-.262 2.156-.262.745 0 1.469.088 2.169.244l-2.169 3.036zm.849 4.63-1.307 1.307-1.924-5.084c.13-.066.253-.145.386-.206zm2.613 0 2.842-3.979c.133.061.264.124.394.19l-1.93 5.096zm-7.306-12.892c0-3.309 2.691-6 6-6s6 2.691 6 6-2.691 6-6 6-6-2.691-6-6zm-10.022 19.731-.978 1.466-.978-1.466.568-7.711c.137-.005.272-.02.41-.02s.273.015.41.021zm-6.978-15.731c0-3.309 2.691-6 6-6s6 2.691 6 6-2.691 6-6 6-6-2.691-6-6zm-11 4c.621 0 1.227.077 1.823.188-.314 1.061-1.024 1.812-1.823 1.812-.802 0-1.515-.757-1.827-1.825.593-.11 1.202-.175 1.827-.175zm-6-8c0-3.309 2.691-6 6-6s6 2.691 6 6-2.691 6-6 6-6-2.691-6-6zm11 46c0 1.103-.897 2-2 2s-2-.897-2-2v-21h-2v21c0 1.103-.897 2-2 2s-2-.897-2-2v-32h-2v14h-1c-1.103 0-2-.897-2-2v-8c0-4.191 2.595-7.782 6.26-9.267.563 1.923 2.02 3.267 3.74 3.267 1.715 0 3.167-1.336 3.735-3.25 2.135.864 3.93 2.447 5.051 4.526-2.325 2.189-3.786 5.286-3.786 8.724v3.054 4.946zm20-14h-1v-14h-2v32c0 1.103-.897 2-2 2s-2-.897-2-2v-21h-2v21c0 1.103-.897 2-2 2s-2-.897-2-2v-32h-2v14h-1c-1.103 0-2-.897-2-2v-4.946-3.054c0-4.672 3.226-8.595 7.564-9.687l-.586 7.956 3.022 4.534 3.022-4.534-.586-7.956c4.338 1.092 7.564 5.015 7.564 9.687v3 5c0 1.103-.897 2-2 2zm19-6c0 1.103-.897 2-2 2h-1v-13h-2v31c0 1.103-.897 2-2 2s-2-.897-2-2v-21h-2v21c0 1.103-.897 2-2 2s-2-.897-2-2v-16-5-3c0-3.438-1.461-6.535-3.786-8.724.643-1.193 1.502-2.224 2.53-3.049l2.869 7.575 3.387-3.387 3.387 3.387 2.873-7.588c2.277 1.835 3.74 4.641 3.74 7.786z"/>
    </symbol>
    <symbol id='room' viewBox="0 0 500 500">    
		<g>
	<g>
		<path d="M484.312,401.568l-115.8-54.04c-0.16-0.184-0.36-0.336-0.544-0.504c-0.2-0.184-0.4-0.36-0.616-0.528
			c-0.144-0.112-0.264-0.256-0.416-0.36c-0.264-0.176-0.552-0.272-0.832-0.408c-0.152-0.08-0.272-0.192-0.424-0.264l-57.368-24.584
			l-91.288-39.128l25.208-8.4l61.24,25.344h0.008l167.992,69.512c0.976,0.408,2.016,0.608,3.056,0.608
			c1.56,0,3.112-0.456,4.448-1.344c2.216-1.488,3.552-3.984,3.552-6.656v-256c0-3.24-1.952-6.16-4.936-7.392l-64-26.488h-0.008
			L245.592,1.424C245,1.176,244.384,1.016,243.76,0.92c-0.016,0-0.024-0.008-0.04-0.008c-1.2-0.176-2.416-0.056-3.568,0.304
			c-0.048,0.016-0.104,0-0.152,0.016l-240,80l5.064,15.176l229.464-76.496v239.136l-32,10.664v-68.896c0-2.536-1.2-4.92-3.232-6.432
			c-2.04-1.504-4.672-1.968-7.096-1.224l-184,56c-3.368,1.024-5.672,4.136-5.672,7.656v80v48c0,3.08,1.768,5.888,4.544,7.216
			l85.104,40.704l-36.96,16.8c-2.84,1.28-4.664,4.104-4.688,7.216s1.76,5.96,4.576,7.296l48.04,22.76l6.84-14.464L77.52,456.968
			l33.488-15.216l80.056,38.288c0.232,0.112,0.48,0.152,0.712,0.232c0.264,0.096,0.52,0.192,0.792,0.264
			c0.464,0.12,0.936,0.176,1.408,0.208c0.192,0.008,0.368,0.072,0.552,0.072c0.072,0,0.136-0.024,0.2-0.032
			c0.496-0.016,0.976-0.104,1.456-0.208c0.208-0.048,0.424-0.056,0.632-0.12c0.208-0.064,0.408-0.168,0.616-0.248
			c0.08-0.032,0.16-0.016,0.24-0.048l168-72c2.952-1.248,4.856-4.144,4.856-7.344v-34.688l91.272,42.6l-142.584,64.808l6.624,14.56
			l158.4-72c2.84-1.288,4.672-4.12,4.688-7.24C488.944,405.736,487.136,402.888,484.312,401.568z M418.528,288.816v-80v-32V90.304
			l48,19.856v238.68l-48-19.864V288.816z M402.528,322.36l-74.272-30.736l41.704-10.416l32.568,13.024V322.36z M346.528,270.568
			v-63.504l16-4v63.504L346.528,270.568z M402.528,277l-24-9.6v-62.768l12,4.8l12,4.8V277z M402.528,197l-12-4.8l-12-4.8v-14.768
			l24,9.6V197z M314.528,47.264l88,36.416V165l-24-9.6v-26.584h-16v25.752l-48,12V47.264z M314.528,183.064l48-12v15.504l-48,12
			V183.064z M314.528,215.064l16-4v63.504l-16,4V215.064z M250.528,20.784l48,19.864v136.168v32v70.512l-48-19.864V20.784z
			 M194.064,289.32l90.976,38.992l-142.912,62.576L32.544,338.472l12.304-3.744l48.008-14.608l20.448-6.224l11.552-3.512h0.008
			l48-14.608L194.064,289.32z M50.528,316.28v-21.696l32-10.664v22.624L50.528,316.28z M130.528,291.936v-21.352l32-10.664v22.272
			l-13.336,4.056L130.528,291.936z M18.528,262.744l168-51.128v63.28l-8,2.432v-28.512c0-2.568-1.232-4.992-3.32-6.488
			c-2.104-1.512-4.784-1.912-7.208-1.104l-48,16c-3.272,1.096-5.472,4.144-5.472,7.592V296.8l-16,4.872v-28.856
			c0-2.568-1.232-4.984-3.32-6.488c-2.096-1.504-4.776-1.912-7.208-1.104l-48,16c-3.272,1.096-5.472,4.144-5.472,7.592v32.336
			l-16,4.864V262.744z M186.528,460.12l-71.968-34.424h-0.008l-96.024-45.92v-30.264l168,80.344V460.12z M194.712,416.032
			L161.184,400l144.008-63.048l37.024,15.864L194.712,416.032z M354.528,395.544l-152,65.144v-30.592l152-65.144V395.544z"/>
	</g>
</g>
<g>
	<g>
		<path d="M175.208,66.328c-2.104-1.504-4.784-1.92-7.208-1.104l-144,48c-3.272,1.096-5.472,4.144-5.472,7.592v96
			c0,2.568,1.232,4.984,3.32,6.488c1.384,1,3.024,1.512,4.68,1.512c0.848,0,1.704-0.136,2.528-0.408l144-48
			c3.272-1.096,5.472-4.144,5.472-7.592v-96C178.528,70.248,177.296,67.832,175.208,66.328z M162.528,163.056l-128,42.664v-79.136
			l128-42.664V163.056z"/>
	</g>
</g>
<g>
	<g>
		<path d="M132.864,115.152l-28.504,28.512l-19.304-6.44c-2.344-0.768-4.912-0.432-6.968,0.936l-24,16l8.872,13.312l20.744-13.832
			l20.288,6.76c2.872,0.96,6.048,0.2,8.184-1.936l32-32L132.864,115.152z"/>
	</g>
</g>
    </symbol>
</svg>