<svg width="48" height="48" viewBox="0 0 48 48" fill="none" xmlns="http://www.w3.org/2000/svg">
<g clip-path="url(#clip0)">
<path d="M42.3994 18.4018C42.1317 18.404 41.8644 18.4252 41.5996 18.4659V7.20226C41.5952 3.22752 38.3741 0.00678813 34.3997 0.00239372H13.6003C9.62591 0.00678813 6.40481 3.22752 6.40041 7.20226V18.4659C3.66013 18.0674 1.0407 19.7336 0.239822 22.3846C-0.561059 25.0355 0.697938 27.8732 3.20055 29.0586V41.6013C3.20202 42.9258 4.27572 43.9995 5.60063 44.001V46.4011C5.60173 47.284 6.31728 47.9999 7.20056 48.001H8.80049C9.68377 47.9999 10.3993 47.284 10.4004 46.4011V44.001H37.5996V46.4011C37.6007 47.284 38.3166 47.9999 39.1995 48.001H40.7995C41.6827 47.9999 42.3983 47.284 42.3994 46.4011V44.001C43.7243 43.9995 44.798 42.9258 44.7995 41.6013V29.0586C47.1655 27.9369 48.438 25.3248 47.8627 22.7702C47.2874 20.2156 45.0181 18.401 42.3994 18.4018ZM8.00071 7.20226C8.00437 4.11116 10.5092 1.60599 13.6003 1.60232H34.3997C37.4908 1.60599 39.996 4.11116 39.9997 7.20226V18.95C38.0482 19.8761 36.8031 21.8419 36.7998 24.0017V30.0466C36.3157 29.7584 35.7631 29.6046 35.1999 29.6016H33.0946L34.9084 19.4425C35.1365 18.1385 34.2675 16.8952 32.9642 16.6619L21.9368 14.6933C20.6332 14.4655 19.3903 15.3345 19.1563 16.6374L17.1879 27.6648C17.0697 28.3555 17.2601 29.063 17.7083 29.6016H12.8005C12.2369 29.6046 11.6847 29.7584 11.2006 30.0466V24.0017C11.1969 21.8419 9.95183 19.8761 8.00071 18.95V7.20226ZM11.2006 32.8015C11.2017 31.9182 11.9172 31.2027 12.8005 31.2016H35.1999C36.0828 31.2027 36.7984 31.9182 36.7998 32.8015V37.6013H11.2006V32.8015ZM19.4097 28.8696C18.9757 28.7909 18.6868 28.3763 18.7633 27.942L20.732 16.915C20.8115 16.4818 21.2253 16.1932 21.6596 16.269L32.6866 18.2377C33.1202 18.3164 33.4092 18.731 33.3326 19.1649L31.4698 29.6016H23.5104L19.4097 28.8696ZM4.80048 41.6013V28.5214C4.80085 28.1808 4.58479 27.8776 4.26327 27.7662C2.34804 27.0851 1.2487 25.0758 1.70829 23.0957C2.1675 21.116 4.03915 19.7959 6.05838 20.0273C8.07761 20.2591 9.60174 21.9693 9.60064 24.0017V42.4011H5.60063C5.15899 42.4007 4.80085 42.0429 4.80048 41.6013ZM8.80196 46.4011H7.20056V44.001H8.80049L8.80196 46.4011ZM11.2006 39.2012H36.7998V42.4011H11.2006V39.2012ZM40.8013 46.4011H39.1995V44.001H40.7995L40.8013 46.4011ZM43.7371 27.7666C43.4152 27.8779 43.1995 28.1812 43.1995 28.5214V41.6013C43.1992 42.0429 42.8414 42.4007 42.3994 42.4011H38.3997V24.0017C38.3972 21.9675 39.9217 20.2555 41.9427 20.0229C43.9634 19.7908 45.8369 21.112 46.2961 23.0939C46.7553 25.0754 45.6542 27.0862 43.7371 27.7666Z" fill="black"/>
<path d="M13.6003 12.0011H15.2003C15.6419 12.0015 16 12.3593 16.0004 12.8009V14.4008C16.0004 14.8428 16.3586 15.201 16.8002 15.201C17.2422 15.201 17.6003 14.8428 17.6003 14.4008V12.8009C17.6007 12.3593 17.9585 12.0015 18.4001 12.0011H20.0004C20.4421 12.0011 20.8002 11.643 20.8002 11.201C20.8002 10.7593 20.4421 10.4012 20.0004 10.4012H18.4001C17.9585 10.4008 17.6007 10.0427 17.6003 9.60103V8.0011C17.6003 7.55946 17.2422 7.20132 16.8002 7.20132C16.3586 7.20132 16.0004 7.55946 16.0004 8.0011V9.60103C16 10.0427 15.6419 10.4008 15.2003 10.4012H13.6003C13.1587 10.4012 12.8005 10.7593 12.8005 11.201C12.8005 11.643 13.1587 12.0011 13.6003 12.0011Z" fill="black"/>
<path d="M28.0001 12.0011H29.6C30.0416 12.0015 30.3998 12.3593 30.3998 12.8009V14.4008C30.3998 14.8428 30.7579 15.201 31.1999 15.201C31.6416 15.201 32.0001 14.8428 32.0001 14.4008V12.8009C32.0001 12.3593 32.3582 12.0015 32.7999 12.0011H34.3998C34.8418 12.0011 35.1999 11.643 35.1999 11.201C35.1999 10.7593 34.8418 10.4012 34.3998 10.4012H32.7999C32.3582 10.4008 32.0001 10.0427 32.0001 9.60103V8.0011C32.0001 7.55946 31.6416 7.20132 31.1999 7.20132C30.7579 7.20132 30.3998 7.55946 30.3998 8.0011V9.60103C30.3998 10.0427 30.0416 10.4008 29.6 10.4012H28.0001C27.5581 10.4012 27.1999 10.7593 27.1999 11.201C27.1999 11.643 27.5581 12.0011 28.0001 12.0011Z" fill="black"/>
<path d="M7.20069 24.0008C7.20069 23.5587 6.84253 23.2006 6.40052 23.2006H4.80054C4.35889 23.2006 4.00074 23.5587 4.00074 24.0008C4.00074 24.4424 4.35889 24.8006 4.80054 24.8006H6.40052C6.84253 24.8006 7.20069 24.4424 7.20069 24.0008Z" fill="black"/>
<path d="M43.1997 23.2006H41.5997C41.1577 23.2006 40.7995 23.5587 40.7995 24.0008C40.7995 24.4424 41.1577 24.8006 41.5997 24.8006H43.1997C43.6413 24.8006 43.9998 24.4424 43.9998 24.0008C43.9998 23.5587 43.6413 23.2006 43.1997 23.2006Z" fill="black"/>
</g>
<defs>
<clipPath id="clip0">
<rect width="48" height="48" fill="white"/>
</clipPath>
</defs>
</svg>
