<svg width="48" height="48" viewBox="0 0 48 48" fill="none" xmlns="http://www.w3.org/2000/svg">
<path d="M9.84375 16.875C10.6204 16.875 11.25 16.2454 11.25 15.4688C11.25 14.6921 10.6204 14.0625 9.84375 14.0625C9.0671 14.0625 8.4375 14.6921 8.4375 15.4688C8.4375 16.2454 9.0671 16.875 9.84375 16.875Z" fill="black"/>
<path d="M43.7042 37.1805L44.968 30.8613C46.7184 30.3474 48 28.7268 48 26.8125C48 24.4863 46.1075 22.5938 43.7812 22.5938H42.375V5.625C42.375 2.52338 39.8516 0 36.75 0C33.6484 0 31.125 2.52338 31.125 5.625V7.03125C31.125 7.80788 31.7546 8.4375 32.5312 8.4375C33.3079 8.4375 33.9375 7.80788 33.9375 7.03125V5.625C33.9375 4.07419 35.1992 2.8125 36.75 2.8125C38.3008 2.8125 39.5625 4.07419 39.5625 5.625V16.875H38.1562C37.3796 16.875 36.75 17.5046 36.75 18.2812C36.75 19.0579 37.3796 19.6875 38.1562 19.6875H39.5625V22.5938C38.6077 22.5938 5.16412 22.5938 4.21875 22.5938C1.89253 22.5938 0 24.4863 0 26.8125C0 28.7268 1.28156 30.3474 3.03188 30.8614L4.29572 37.1806C4.80881 39.7462 6.28059 41.9212 8.28178 43.3545L6.44878 45.1875H4.21875C3.44212 45.1875 2.8125 45.8171 2.8125 46.5938C2.8125 47.3704 3.44212 48 4.21875 48H7.03125C7.40419 48 7.76184 47.8518 8.02556 47.5881L10.9165 44.6971C11.8773 45.0151 12.8972 45.1874 13.9483 45.1874H34.0517C35.1029 45.1874 36.1227 45.015 37.0835 44.6971L39.9744 47.5881C40.2382 47.8518 40.5958 48 40.9688 48H43.7812C44.5579 48 45.1875 47.3704 45.1875 46.5938C45.1875 45.8171 44.5579 45.1875 43.7812 45.1875H41.5512L39.7181 43.3544C41.7193 41.9212 43.1911 39.7461 43.7042 37.1805ZM22.5 25.4062H43.7812C44.5567 25.4062 45.1875 26.0371 45.1875 26.8125C45.1875 27.5879 44.5567 28.2188 43.7812 28.2188H22.5V25.4062ZM14.0625 25.4062H19.6875V33.8438H14.0625V25.4062ZM4.21875 28.2188C3.44334 28.2188 2.8125 27.5879 2.8125 26.8125C2.8125 26.0371 3.44334 25.4062 4.21875 25.4062H11.25V28.2188H4.21875ZM34.0517 42.375H13.9483C10.6192 42.375 7.71956 39.9584 7.05366 36.6289L5.93409 31.0312H11.25V35.25C11.25 36.0266 11.8796 36.6562 12.6562 36.6562H21.0938C21.8704 36.6562 22.5 36.0266 22.5 35.25V31.0312H42.0659L40.9463 36.6289C40.2804 39.9584 37.3808 42.375 34.0517 42.375Z" fill="black" fill-opacity="0.8"/>
<path d="M9.84375 0C7.51753 0 5.625 1.89253 5.625 4.21875C5.625 6.54497 7.51753 8.4375 9.84375 8.4375C12.17 8.4375 14.0625 6.54497 14.0625 4.21875C14.0625 1.89253 12.17 0 9.84375 0ZM9.84375 5.625C9.06834 5.625 8.4375 4.99416 8.4375 4.21875C8.4375 3.44334 9.06834 2.8125 9.84375 2.8125C10.6192 2.8125 11.25 3.44334 11.25 4.21875C11.25 4.99416 10.6192 5.625 9.84375 5.625Z" fill="black"/>
<path d="M19.6875 8.4375C16.5859 8.4375 14.0625 10.9609 14.0625 14.0625C14.0625 17.1641 16.5859 19.6875 19.6875 19.6875C22.7891 19.6875 25.3125 17.1641 25.3125 14.0625C25.3125 10.9609 22.7891 8.4375 19.6875 8.4375ZM19.6875 16.875C18.1367 16.875 16.875 15.6133 16.875 14.0625C16.875 12.5117 18.1367 11.25 19.6875 11.25C21.2383 11.25 22.5 12.5117 22.5 14.0625C22.5 15.6133 21.2383 16.875 19.6875 16.875Z" fill="black"/>
</svg>
