<svg width="48" height="48" viewBox="0 0 48 48" fill="none" xmlns="http://www.w3.org/2000/svg">
<g clip-path="url(#clip0)">
<path d="M47.1998 27.4303V16.4062C47.1998 15.9646 46.8417 15.6061 46.4 15.6061H41.6001C41.1581 15.6061 40.7999 15.9646 40.7999 16.4062V26.8063H37.4246L37.0247 25.2063H37.6C38.4833 25.2052 39.1989 24.4896 39.2 23.6063V6.00623C39.1989 5.12292 38.4833 4.40735 37.6 4.40625H10.4C9.51672 4.40698 8.80078 5.12292 8.80005 6.00623V23.6063C8.80078 24.4896 9.51672 25.2052 10.4 25.2063H10.9753L10.5754 26.8063H7.20007V16.4062C7.20007 15.9646 6.84192 15.6061 6.3999 15.6061H1.59998C1.15833 15.6061 0.800171 15.9646 0.800171 16.4062V27.4303C0.292603 27.8815 0.00183105 28.5275 0 29.2064V37.2063C0.00146484 38.5312 1.0752 39.6046 2.40015 39.6061H3.02417L2.54407 42.0062H0.800171C0.358154 42.0062 0 42.3644 0 42.8064C0 43.248 0.358154 43.6062 0.800171 43.6062H47.1998C47.6418 43.6062 48 43.248 48 42.8064C48 42.3644 47.6418 42.0062 47.1998 42.0062H45.4559L44.9758 39.6061H45.5999C46.9248 39.6046 47.9985 38.5312 48 37.2063V29.2064C47.9982 28.5275 47.7074 27.8815 47.1998 27.4303ZM45.5999 17.2064V19.2513C44.6158 18.6577 43.3843 18.6577 42.3999 19.2513V17.2064H45.5999ZM45.5999 22.0063C45.5999 22.89 44.8835 23.6063 43.9999 23.6063C43.1162 23.6063 42.3999 22.89 42.3999 22.0063C42.3999 21.1227 43.1162 20.4064 43.9999 20.4064C44.8832 20.4071 45.5991 21.123 45.5999 22.0063ZM42.3999 24.7614C43.3843 25.3546 44.6158 25.3546 45.5999 24.7614V26.8063H42.3999V24.7614ZM35.7755 26.8063H34.7999L33.5999 25.2063H35.3756L35.7755 26.8063ZM39.5471 39.6061L40.9871 42.0062H7.01294L8.45288 39.6061H39.5471ZM31.6 25.2063L32.8 26.8063H15.2L16.4 25.2063H31.6ZM15.2 38.0061V34.0063H32.8V38.0061H15.2ZM32.8 32.4064H15.2V28.4062H32.8V32.4064ZM10.4 6.00623H37.6V23.6063H10.4V6.00623ZM12.6248 25.2063H14.4001L13.2001 26.8063H12.2245L12.6248 25.2063ZM5.6001 17.2064V19.2513C4.61609 18.6577 3.38416 18.6577 2.40015 19.2513V17.2064H5.6001ZM5.6001 22.0063C5.6001 22.89 4.88379 23.6063 4.00012 23.6063C3.11646 23.6063 2.40015 22.89 2.40015 22.0063C2.40015 21.1227 3.11646 20.4064 4.00012 20.4064C4.88342 20.4071 5.599 21.123 5.6001 22.0063ZM2.40015 24.761C3.38416 25.3546 4.61609 25.3546 5.6001 24.761V26.8063H2.40015V24.761ZM1.59998 37.2063V29.2064C1.60071 28.7648 1.9585 28.407 2.40015 28.4062H13.6V38.0061H2.40015C1.9585 38.0057 1.60071 37.6479 1.59998 37.2063ZM4.1759 42.0062L4.65601 39.6061H6.58704L5.14709 42.0062H4.1759ZM43.8241 42.0062H42.8533L41.413 39.6061H43.344L43.8241 42.0062ZM46.4 37.2063C46.3997 37.6479 46.0415 38.0057 45.5999 38.0061H34.4V28.4062H45.5999C46.0415 28.4066 46.3997 28.7644 46.4 29.2064V37.2063Z" fill="black"/>
<path d="M11.1998 32.4064H10.4C9.95802 32.4064 9.59987 32.7645 9.59987 33.2062C9.59987 33.6482 9.95802 34.0064 10.4 34.0064H11.1998C11.6419 34.0064 12 33.6482 12 33.2062C12 32.7645 11.6419 32.4064 11.1998 32.4064Z" fill="black"/>
<path d="M37.6 32.4064H36.8002C36.3582 32.4064 36 32.7645 36 33.2062C36 33.6482 36.3582 34.0064 36.8002 34.0064H37.6C38.042 34.0064 38.4001 33.6482 38.4001 33.2062C38.4001 32.7645 38.042 32.4064 37.6 32.4064Z" fill="black"/>
<path d="M12.8002 12.4061C13.0122 12.4065 13.2158 12.3223 13.3656 12.1718L16.5656 8.97181C16.8688 8.65797 16.8644 8.15882 16.5561 7.85047C16.2473 7.54176 15.7482 7.53736 15.4344 7.84058L12.2344 11.0405C12.0055 11.2694 11.9374 11.6137 12.0612 11.9125C12.185 12.2113 12.4765 12.4061 12.8002 12.4061Z" fill="black"/>
<path d="M19.4344 7.84058L12.2344 15.0407C12.0264 15.2413 11.9429 15.5391 12.0161 15.8185C12.0893 16.0983 12.308 16.3169 12.5878 16.3901C12.8672 16.4634 13.1649 16.3799 13.3656 16.1719L20.5657 8.97181C20.8689 8.65797 20.8645 8.15882 20.5558 7.85047C20.2474 7.54176 19.7483 7.53736 19.4344 7.84058Z" fill="black"/>
</g>
<defs>
<clipPath id="clip0">
<rect width="48" height="48" fill="white"/>
</clipPath>
</defs>
</svg>
