<svg xmlns="http://www.w3.org/2000/svg" xmlns:xlink="http://www.w3.org/1999/xlink">
    <symbol id='kitchen' viewBox="0 0 48 48">
        <path d="M8.59937 47.9999C8.3313 47.9999 8.0603 47.9234 7.82043 47.7637C6.48596 46.8738 5.68945 45.368 5.68945 43.7347C5.68945 42.1017 6.48596 40.5955 7.82043 39.706C8.37891 39.3336 8.69934 38.7348 8.69934 38.0635C8.69934 37.3923 8.37891 36.7939 7.82043 36.4214C7.17444 35.9908 6.99976 35.1177 7.43042 34.4717C7.86145 33.8254 8.7345 33.6511 9.38049 34.0817C10.7146 34.9712 11.5115 36.4599 11.5115 38.0635C11.5115 39.6675 10.7146 41.1562 9.38049 42.0457C8.82166 42.4181 8.50159 43.0337 8.50159 43.735C8.50159 44.436 8.82166 45.0516 9.38049 45.424C10.0265 45.8547 10.2012 46.7277 9.77051 47.3737C9.49951 47.7802 9.05347 47.9999 8.59937 47.9999Z"/>
        <path d="M18.4417 47.9999C18.1736 47.9999 17.9026 47.9234 17.6631 47.7637C16.3286 46.8738 15.5317 45.368 15.5317 43.7347C15.5317 42.1017 16.3286 40.5955 17.6631 39.706C18.2216 39.3336 18.5416 38.7348 18.5416 38.0635C18.5416 37.3923 18.2216 36.7939 17.6631 36.4214C17.0167 35.9908 16.842 35.1177 17.2731 34.4717C17.7037 33.8254 18.5768 33.6511 19.2228 34.0817C20.5573 34.9712 21.3538 36.4599 21.3538 38.0635C21.3538 39.6675 20.5573 41.1562 19.2228 42.0457C18.6643 42.4181 18.3439 43.0337 18.3439 43.735C18.3439 44.436 18.6643 45.0516 19.2228 45.424C19.8688 45.8547 20.0435 46.7277 19.6128 47.3737C19.3418 47.7802 18.8958 47.9999 18.4417 47.9999Z"/>
        <path d="M38.1266 47.9999C37.8585 47.9999 37.5875 47.9234 37.348 47.7637C36.0135 46.8738 35.2167 45.368 35.2167 43.7347C35.2167 42.1017 36.0135 40.5955 37.348 39.706C37.9065 39.3336 38.2266 38.7348 38.2266 38.0635C38.2266 37.3923 37.9065 36.7939 37.348 36.4214C36.7017 35.9908 36.527 35.1177 36.9576 34.4717C37.3887 33.8254 38.2617 33.6511 38.9077 34.0817C40.2422 34.9712 41.0387 36.4599 41.0387 38.0635C41.0387 39.6675 40.2422 41.1562 38.9077 42.0457C38.3492 42.4181 38.0288 43.0337 38.0288 43.735C38.0288 44.436 38.3489 45.0516 38.9077 45.424C39.5537 45.8547 39.7284 46.7277 39.2977 47.3737C39.0267 47.7802 38.5807 47.9999 38.1266 47.9999Z"/>
        <path d="M28.2839 47.9999C28.0162 47.9999 27.7452 47.9234 27.5054 47.7637C26.1709 46.8738 25.3744 45.368 25.3744 43.7347C25.3744 42.1017 26.1709 40.5955 27.5054 39.706C28.0638 39.3336 28.3843 38.7348 28.3843 38.0635C28.3843 37.3923 28.0638 36.7939 27.5054 36.4214C26.8594 35.9908 26.6847 35.1177 27.1154 34.4717C27.546 33.8254 28.4194 33.6511 29.0651 34.0817C30.3995 34.9712 31.1964 36.4599 31.1964 38.0635C31.1964 39.6675 30.3995 41.1562 29.0651 42.0457C28.5066 42.4181 28.1862 43.0337 28.1862 43.735C28.1862 44.436 28.5066 45.0516 29.0651 45.424C29.7114 45.8547 29.8861 46.7277 29.4551 47.3737C29.1844 47.7802 28.7384 47.9999 28.2839 47.9999Z"/>
        <path d="M47.4622 22.8959L33.8392 12.0696V1.40588C33.8392 0.629517 33.2096 0 32.4329 0H15.5605C14.7837 0 14.1542 0.629517 14.1542 1.40588V12.0696L0.531178 22.8959C-0.0767318 23.3793 -0.178172 24.2637 0.305226 24.8716C0.788258 25.4795 1.67266 25.5809 2.28057 25.0975L16.0508 14.1544H31.9426L45.7128 25.0975C45.9714 25.303 46.2801 25.403 46.5866 25.403C47.0008 25.403 47.4106 25.2209 47.6882 24.8716C48.1712 24.2637 48.0701 23.3793 47.4622 22.8959ZM16.9664 11.3423V2.81213H31.027V11.3423H16.9664Z"/>
        <path d="M46.5875 31.0273H1.40625C0.629517 31.0273 0 30.3977 0 29.621V23.9967C0 23.2204 0.629517 22.5909 1.40625 22.5909H46.5875C47.3643 22.5909 47.9938 23.2204 47.9938 23.9967V29.621C47.9938 30.3977 47.3643 31.0273 46.5875 31.0273ZM2.81213 28.2151H45.1816V25.403H2.81213V28.2151Z"/>
    </symbol> 
    <symbol id='bedroom' viewBox="0 0 48 34">
        <path d="M46.5 25.25H45.75V19.25C45.749 18.4547 45.4326 17.6922 44.8702 17.1298C44.3078 16.5674 43.5453 16.251 42.75 16.25V3.5C42.749 2.70467 42.4326 1.94221 41.8702 1.37983C41.3078 0.817447 40.5453 0.501042 39.75 0.5H8.25C7.45467 0.501042 6.69221 0.817447 6.12983 1.37983C5.56745 1.94221 5.25104 2.70467 5.25 3.5V16.25C4.45467 16.251 3.69221 16.5674 3.12983 17.1298C2.56745 17.6922 2.25104 18.4547 2.25 19.25V25.25H1.5C1.30109 25.25 1.11032 25.329 0.96967 25.4697C0.829018 25.6103 0.75 25.8011 0.75 26V29C0.75 29.1989 0.829018 29.3897 0.96967 29.5303C1.11032 29.671 1.30109 29.75 1.5 29.75H2.25V32.75C2.25 32.9489 2.32902 33.1397 2.46967 33.2803C2.61032 33.421 2.80109 33.5 3 33.5H5.25C5.42334 33.5001 5.59134 33.44 5.72537 33.3301C5.8594 33.2202 5.95116 33.0672 5.985 32.8972L6.615 29.75H41.385L42.015 32.8972C42.0488 33.0672 42.1406 33.2202 42.2746 33.3301C42.4087 33.44 42.5767 33.5001 42.75 33.5H45C45.1989 33.5 45.3897 33.421 45.5303 33.2803C45.671 33.1397 45.75 32.9489 45.75 32.75V29.75H46.5C46.6989 29.75 46.8897 29.671 47.0303 29.5303C47.171 29.3897 47.25 29.1989 47.25 29V26C47.25 25.8011 47.171 25.6103 47.0303 25.4697C46.8897 25.329 46.6989 25.25 46.5 25.25ZM6.75 3.5C6.75052 3.10234 6.90872 2.72111 7.18992 2.43992C7.47111 2.15872 7.85233 2.00052 8.25 2H39.75C40.1477 2.00052 40.5289 2.15872 40.8101 2.43992C41.0913 2.72111 41.2495 3.10234 41.25 3.5V16.25H39.75V13.25C39.749 12.4547 39.4326 11.6922 38.8702 11.1298C38.3078 10.5674 37.5453 10.251 36.75 10.25H27.75C26.9547 10.251 26.1922 10.5674 25.6298 11.1298C25.0674 11.6922 24.751 12.4547 24.75 13.25V16.25H23.25V13.25C23.249 12.4547 22.9326 11.6922 22.3702 11.1298C21.8078 10.5674 21.0453 10.251 20.25 10.25H11.25C10.4547 10.251 9.69221 10.5674 9.12983 11.1298C8.56745 11.6922 8.25104 12.4547 8.25 13.25V16.25H6.75V3.5ZM38.25 13.25V16.25H26.25V13.25C26.2505 12.8523 26.4087 12.4711 26.6899 12.1899C26.9711 11.9087 27.3523 11.7505 27.75 11.75H36.75C37.1477 11.7505 37.5289 11.9087 37.8101 12.1899C38.0913 12.4711 38.2495 12.8523 38.25 13.25ZM21.75 13.25V16.25H9.75V13.25C9.75052 12.8523 9.90872 12.4711 10.1899 12.1899C10.4711 11.9087 10.8523 11.7505 11.25 11.75H20.25C20.6477 11.7505 21.0289 11.9087 21.3101 12.1899C21.5913 12.4711 21.7495 12.8523 21.75 13.25ZM3.75 19.25C3.75052 18.8523 3.90872 18.4711 4.18992 18.1899C4.47111 17.9087 4.85233 17.7505 5.25 17.75H42.75C43.1477 17.7505 43.5289 17.9087 43.8101 18.1899C44.0913 18.4711 44.2495 18.8523 44.25 19.25V25.25H3.75V19.25ZM4.635 32H3.75V29.75H5.085L4.635 32ZM44.25 32H43.365L42.915 29.75H44.25V32ZM45.75 28.25H2.25V26.75H45.75V28.25Z"/>
    </symbol>  
    <symbol id='bathroom' viewBox="0 0 48 48">
        <path d="M9.84375 16.875C10.6204 16.875 11.25 16.2454 11.25 15.4688C11.25 14.6921 10.6204 14.0625 9.84375 14.0625C9.0671 14.0625 8.4375 14.6921 8.4375 15.4688C8.4375 16.2454 9.0671 16.875 9.84375 16.875Z"/>
        <path d="M43.7042 37.1805L44.968 30.8613C46.7184 30.3474 48 28.7268 48 26.8125C48 24.4863 46.1075 22.5938 43.7812 22.5938H42.375V5.625C42.375 2.52338 39.8516 0 36.75 0C33.6484 0 31.125 2.52338 31.125 5.625V7.03125C31.125 7.80788 31.7546 8.4375 32.5312 8.4375C33.3079 8.4375 33.9375 7.80788 33.9375 7.03125V5.625C33.9375 4.07419 35.1992 2.8125 36.75 2.8125C38.3008 2.8125 39.5625 4.07419 39.5625 5.625V16.875H38.1562C37.3796 16.875 36.75 17.5046 36.75 18.2812C36.75 19.0579 37.3796 19.6875 38.1562 19.6875H39.5625V22.5938C38.6077 22.5938 5.16412 22.5938 4.21875 22.5938C1.89253 22.5938 0 24.4863 0 26.8125C0 28.7268 1.28156 30.3474 3.03188 30.8614L4.29572 37.1806C4.80881 39.7462 6.28059 41.9212 8.28178 43.3545L6.44878 45.1875H4.21875C3.44212 45.1875 2.8125 45.8171 2.8125 46.5938C2.8125 47.3704 3.44212 48 4.21875 48H7.03125C7.40419 48 7.76184 47.8518 8.02556 47.5881L10.9165 44.6971C11.8773 45.0151 12.8972 45.1874 13.9483 45.1874H34.0517C35.1029 45.1874 36.1227 45.015 37.0835 44.6971L39.9744 47.5881C40.2382 47.8518 40.5958 48 40.9688 48H43.7812C44.5579 48 45.1875 47.3704 45.1875 46.5938C45.1875 45.8171 44.5579 45.1875 43.7812 45.1875H41.5512L39.7181 43.3544C41.7193 41.9212 43.1911 39.7461 43.7042 37.1805ZM22.5 25.4062H43.7812C44.5567 25.4062 45.1875 26.0371 45.1875 26.8125C45.1875 27.5879 44.5567 28.2188 43.7812 28.2188H22.5V25.4062ZM14.0625 25.4062H19.6875V33.8438H14.0625V25.4062ZM4.21875 28.2188C3.44334 28.2188 2.8125 27.5879 2.8125 26.8125C2.8125 26.0371 3.44334 25.4062 4.21875 25.4062H11.25V28.2188H4.21875ZM34.0517 42.375H13.9483C10.6192 42.375 7.71956 39.9584 7.05366 36.6289L5.93409 31.0312H11.25V35.25C11.25 36.0266 11.8796 36.6562 12.6562 36.6562H21.0938C21.8704 36.6562 22.5 36.0266 22.5 35.25V31.0312H42.0659L40.9463 36.6289C40.2804 39.9584 37.3808 42.375 34.0517 42.375Z"/>
        <path d="M9.84375 0C7.51753 0 5.625 1.89253 5.625 4.21875C5.625 6.54497 7.51753 8.4375 9.84375 8.4375C12.17 8.4375 14.0625 6.54497 14.0625 4.21875C14.0625 1.89253 12.17 0 9.84375 0ZM9.84375 5.625C9.06834 5.625 8.4375 4.99416 8.4375 4.21875C8.4375 3.44334 9.06834 2.8125 9.84375 2.8125C10.6192 2.8125 11.25 3.44334 11.25 4.21875C11.25 4.99416 10.6192 5.625 9.84375 5.625Z"/>
        <path d="M19.6875 8.4375C16.5859 8.4375 14.0625 10.9609 14.0625 14.0625C14.0625 17.1641 16.5859 19.6875 19.6875 19.6875C22.7891 19.6875 25.3125 17.1641 25.3125 14.0625C25.3125 10.9609 22.7891 8.4375 19.6875 8.4375ZM19.6875 16.875C18.1367 16.875 16.875 15.6133 16.875 14.0625C16.875 12.5117 18.1367 11.25 19.6875 11.25C21.2383 11.25 22.5 12.5117 22.5 14.0625C22.5 15.6133 21.2383 16.875 19.6875 16.875Z"/>
    </symbol>    
    <symbol id='cinemaroom' viewBox="0 0 48 48">
        <path d="M47.1998 27.4303V16.4062C47.1998 15.9646 46.8417 15.6061 46.4 15.6061H41.6001C41.1581 15.6061 40.7999 15.9646 40.7999 16.4062V26.8063H37.4246L37.0247 25.2063H37.6C38.4833 25.2052 39.1989 24.4896 39.2 23.6063V6.00623C39.1989 5.12292 38.4833 4.40735 37.6 4.40625H10.4C9.51672 4.40698 8.80078 5.12292 8.80005 6.00623V23.6063C8.80078 24.4896 9.51672 25.2052 10.4 25.2063H10.9753L10.5754 26.8063H7.20007V16.4062C7.20007 15.9646 6.84192 15.6061 6.3999 15.6061H1.59998C1.15833 15.6061 0.800171 15.9646 0.800171 16.4062V27.4303C0.292603 27.8815 0.00183105 28.5275 0 29.2064V37.2063C0.00146484 38.5312 1.0752 39.6046 2.40015 39.6061H3.02417L2.54407 42.0062H0.800171C0.358154 42.0062 0 42.3644 0 42.8064C0 43.248 0.358154 43.6062 0.800171 43.6062H47.1998C47.6418 43.6062 48 43.248 48 42.8064C48 42.3644 47.6418 42.0062 47.1998 42.0062H45.4559L44.9758 39.6061H45.5999C46.9248 39.6046 47.9985 38.5312 48 37.2063V29.2064C47.9982 28.5275 47.7074 27.8815 47.1998 27.4303ZM45.5999 17.2064V19.2513C44.6158 18.6577 43.3843 18.6577 42.3999 19.2513V17.2064H45.5999ZM45.5999 22.0063C45.5999 22.89 44.8835 23.6063 43.9999 23.6063C43.1162 23.6063 42.3999 22.89 42.3999 22.0063C42.3999 21.1227 43.1162 20.4064 43.9999 20.4064C44.8832 20.4071 45.5991 21.123 45.5999 22.0063ZM42.3999 24.7614C43.3843 25.3546 44.6158 25.3546 45.5999 24.7614V26.8063H42.3999V24.7614ZM35.7755 26.8063H34.7999L33.5999 25.2063H35.3756L35.7755 26.8063ZM39.5471 39.6061L40.9871 42.0062H7.01294L8.45288 39.6061H39.5471ZM31.6 25.2063L32.8 26.8063H15.2L16.4 25.2063H31.6ZM15.2 38.0061V34.0063H32.8V38.0061H15.2ZM32.8 32.4064H15.2V28.4062H32.8V32.4064ZM10.4 6.00623H37.6V23.6063H10.4V6.00623ZM12.6248 25.2063H14.4001L13.2001 26.8063H12.2245L12.6248 25.2063ZM5.6001 17.2064V19.2513C4.61609 18.6577 3.38416 18.6577 2.40015 19.2513V17.2064H5.6001ZM5.6001 22.0063C5.6001 22.89 4.88379 23.6063 4.00012 23.6063C3.11646 23.6063 2.40015 22.89 2.40015 22.0063C2.40015 21.1227 3.11646 20.4064 4.00012 20.4064C4.88342 20.4071 5.599 21.123 5.6001 22.0063ZM2.40015 24.761C3.38416 25.3546 4.61609 25.3546 5.6001 24.761V26.8063H2.40015V24.761ZM1.59998 37.2063V29.2064C1.60071 28.7648 1.9585 28.407 2.40015 28.4062H13.6V38.0061H2.40015C1.9585 38.0057 1.60071 37.6479 1.59998 37.2063ZM4.1759 42.0062L4.65601 39.6061H6.58704L5.14709 42.0062H4.1759ZM43.8241 42.0062H42.8533L41.413 39.6061H43.344L43.8241 42.0062ZM46.4 37.2063C46.3997 37.6479 46.0415 38.0057 45.5999 38.0061H34.4V28.4062H45.5999C46.0415 28.4066 46.3997 28.7644 46.4 29.2064V37.2063Z"/>
        <path d="M11.1998 32.4064H10.4C9.95802 32.4064 9.59987 32.7645 9.59987 33.2062C9.59987 33.6482 9.95802 34.0064 10.4 34.0064H11.1998C11.6419 34.0064 12 33.6482 12 33.2062C12 32.7645 11.6419 32.4064 11.1998 32.4064Z"/>
        <path d="M37.6 32.4064H36.8002C36.3582 32.4064 36 32.7645 36 33.2062C36 33.6482 36.3582 34.0064 36.8002 34.0064H37.6C38.042 34.0064 38.4001 33.6482 38.4001 33.2062C38.4001 32.7645 38.042 32.4064 37.6 32.4064Z"/>
        <path d="M12.8002 12.4061C13.0122 12.4065 13.2158 12.3223 13.3656 12.1718L16.5656 8.97181C16.8688 8.65797 16.8644 8.15882 16.5561 7.85047C16.2473 7.54176 15.7482 7.53736 15.4344 7.84058L12.2344 11.0405C12.0055 11.2694 11.9374 11.6137 12.0612 11.9125C12.185 12.2113 12.4765 12.4061 12.8002 12.4061Z"/>
        <path d="M19.4344 7.84058L12.2344 15.0407C12.0264 15.2413 11.9429 15.5391 12.0161 15.8185C12.0893 16.0983 12.308 16.3169 12.5878 16.3901C12.8672 16.4634 13.1649 16.3799 13.3656 16.1719L20.5657 8.97181C20.8689 8.65797 20.8645 8.15882 20.5558 7.85047C20.2474 7.54176 19.7483 7.53736 19.4344 7.84058Z"/>
    </symbol> 
    <symbol id='livingroom' viewBox="0 0 48 48">
        <path d="M42.3994 18.4018C42.1317 18.404 41.8644 18.4252 41.5996 18.4659V7.20226C41.5952 3.22752 38.3741 0.00678813 34.3997 0.00239372H13.6003C9.62591 0.00678813 6.40481 3.22752 6.40041 7.20226V18.4659C3.66013 18.0674 1.0407 19.7336 0.239822 22.3846C-0.561059 25.0355 0.697938 27.8732 3.20055 29.0586V41.6013C3.20202 42.9258 4.27572 43.9995 5.60063 44.001V46.4011C5.60173 47.284 6.31728 47.9999 7.20056 48.001H8.80049C9.68377 47.9999 10.3993 47.284 10.4004 46.4011V44.001H37.5996V46.4011C37.6007 47.284 38.3166 47.9999 39.1995 48.001H40.7995C41.6827 47.9999 42.3983 47.284 42.3994 46.4011V44.001C43.7243 43.9995 44.798 42.9258 44.7995 41.6013V29.0586C47.1655 27.9369 48.438 25.3248 47.8627 22.7702C47.2874 20.2156 45.0181 18.401 42.3994 18.4018ZM8.00071 7.20226C8.00437 4.11116 10.5092 1.60599 13.6003 1.60232H34.3997C37.4908 1.60599 39.996 4.11116 39.9997 7.20226V18.95C38.0482 19.8761 36.8031 21.8419 36.7998 24.0017V30.0466C36.3157 29.7584 35.7631 29.6046 35.1999 29.6016H33.0946L34.9084 19.4425C35.1365 18.1385 34.2675 16.8952 32.9642 16.6619L21.9368 14.6933C20.6332 14.4655 19.3903 15.3345 19.1563 16.6374L17.1879 27.6648C17.0697 28.3555 17.2601 29.063 17.7083 29.6016H12.8005C12.2369 29.6046 11.6847 29.7584 11.2006 30.0466V24.0017C11.1969 21.8419 9.95183 19.8761 8.00071 18.95V7.20226ZM11.2006 32.8015C11.2017 31.9182 11.9172 31.2027 12.8005 31.2016H35.1999C36.0828 31.2027 36.7984 31.9182 36.7998 32.8015V37.6013H11.2006V32.8015ZM19.4097 28.8696C18.9757 28.7909 18.6868 28.3763 18.7633 27.942L20.732 16.915C20.8115 16.4818 21.2253 16.1932 21.6596 16.269L32.6866 18.2377C33.1202 18.3164 33.4092 18.731 33.3326 19.1649L31.4698 29.6016H23.5104L19.4097 28.8696ZM4.80048 41.6013V28.5214C4.80085 28.1808 4.58479 27.8776 4.26327 27.7662C2.34804 27.0851 1.2487 25.0758 1.70829 23.0957C2.1675 21.116 4.03915 19.7959 6.05838 20.0273C8.07761 20.2591 9.60174 21.9693 9.60064 24.0017V42.4011H5.60063C5.15899 42.4007 4.80085 42.0429 4.80048 41.6013ZM8.80196 46.4011H7.20056V44.001H8.80049L8.80196 46.4011ZM11.2006 39.2012H36.7998V42.4011H11.2006V39.2012ZM40.8013 46.4011H39.1995V44.001H40.7995L40.8013 46.4011ZM43.7371 27.7666C43.4152 27.8779 43.1995 28.1812 43.1995 28.5214V41.6013C43.1992 42.0429 42.8414 42.4007 42.3994 42.4011H38.3997V24.0017C38.3972 21.9675 39.9217 20.2555 41.9427 20.0229C43.9634 19.7908 45.8369 21.112 46.2961 23.0939C46.7553 25.0754 45.6542 27.0862 43.7371 27.7666Z"/>
        <path d="M13.6003 12.0011H15.2003C15.6419 12.0015 16 12.3593 16.0004 12.8009V14.4008C16.0004 14.8428 16.3586 15.201 16.8002 15.201C17.2422 15.201 17.6003 14.8428 17.6003 14.4008V12.8009C17.6007 12.3593 17.9585 12.0015 18.4001 12.0011H20.0004C20.4421 12.0011 20.8002 11.643 20.8002 11.201C20.8002 10.7593 20.4421 10.4012 20.0004 10.4012H18.4001C17.9585 10.4008 17.6007 10.0427 17.6003 9.60103V8.0011C17.6003 7.55946 17.2422 7.20132 16.8002 7.20132C16.3586 7.20132 16.0004 7.55946 16.0004 8.0011V9.60103C16 10.0427 15.6419 10.4008 15.2003 10.4012H13.6003C13.1587 10.4012 12.8005 10.7593 12.8005 11.201C12.8005 11.643 13.1587 12.0011 13.6003 12.0011Z"/>
        <path d="M28.0001 12.0011H29.6C30.0416 12.0015 30.3998 12.3593 30.3998 12.8009V14.4008C30.3998 14.8428 30.7579 15.201 31.1999 15.201C31.6416 15.201 32.0001 14.8428 32.0001 14.4008V12.8009C32.0001 12.3593 32.3582 12.0015 32.7999 12.0011H34.3998C34.8418 12.0011 35.1999 11.643 35.1999 11.201C35.1999 10.7593 34.8418 10.4012 34.3998 10.4012H32.7999C32.3582 10.4008 32.0001 10.0427 32.0001 9.60103V8.0011C32.0001 7.55946 31.6416 7.20132 31.1999 7.20132C30.7579 7.20132 30.3998 7.55946 30.3998 8.0011V9.60103C30.3998 10.0427 30.0416 10.4008 29.6 10.4012H28.0001C27.5581 10.4012 27.1999 10.7593 27.1999 11.201C27.1999 11.643 27.5581 12.0011 28.0001 12.0011Z"/>
        <path d="M7.20069 24.0008C7.20069 23.5587 6.84253 23.2006 6.40052 23.2006H4.80054C4.35889 23.2006 4.00074 23.5587 4.00074 24.0008C4.00074 24.4424 4.35889 24.8006 4.80054 24.8006H6.40052C6.84253 24.8006 7.20069 24.4424 7.20069 24.0008Z"/>
        <path d="M43.1997 23.2006H41.5997C41.1577 23.2006 40.7995 23.5587 40.7995 24.0008C40.7995 24.4424 41.1577 24.8006 41.5997 24.8006H43.1997C43.6413 24.8006 43.9998 24.4424 43.9998 24.0008C43.9998 23.5587 43.6413 23.2006 43.1997 23.2006Z"/>
    </symbol> 
    <symbol id='toilet' viewBox="0 0 512 512">
        <path d="M510.588,230.459c-3.61-10.261-13.31-17.121-24.188-17.105H187.733c-4.713,0-8.533,3.82-8.533,8.533v25.6h-17.067V128.021
			h8.533c14.138,0,25.6-11.461,25.6-25.6s-11.461-25.6-25.6-25.6h-8.533v-25.6h8.533c4.713,0,8.533-3.82,8.533-8.533V8.554
			c0-4.713-3.82-8.533-8.533-8.533H8.533C3.82,0.021,0,3.841,0,8.554v34.133c0,4.713,3.82,8.533,8.533,8.533h8.533v204.8
			c0,4.713,3.82,8.533,8.533,8.533h8.533c2.731,54.955,31.573,77.824,57.173,98.048c32.427,25.6,62.976,49.749,45.141,139.179
			c-0.945,4.617,2.032,9.126,6.649,10.071c0.648,0.133,1.308,0.189,1.969,0.169h273.067c4.713-0.001,8.533-3.822,8.532-8.535
			c0-1.531-0.412-3.034-1.193-4.351c-24.405-40.619-24.405-73.643-24.405-123.648c52.395-17.067,90.197-60.843,93.867-112.384
			C508.271,258.412,515.279,243.796,510.588,230.459z M170.667,93.887c4.713,0,8.533,3.82,8.533,8.533s-3.82,8.533-8.533,8.533
			h-8.533V93.887H170.667z M17.067,34.154V17.087h145.067v17.067H17.067z M34.133,51.221h110.933v196.267H34.133V51.221z
			 M155.307,494.954c15.36-91.477-19.371-119.467-52.907-145.749c-25.003-19.541-48.384-38.059-51.2-84.651h119.467
			c3.84,51.2,41.472,93.867,93.355,110.933c0,48.128,0,80.64-22.016,119.467H155.307z M403.712,494.954H261.888
			c18.944-37.717,19.712-71.168,19.712-114.688c11.214,2.451,22.655,3.71,34.133,3.755h34.133
			c11.478-0.045,22.92-1.303,34.133-3.755C384,423.786,384.683,457.237,403.712,494.954z M349.867,366.954h-34.133
			c-67.243,0-122.453-45.227-127.488-102.4h289.109C472.32,321.727,417.109,366.954,349.867,366.954z M486.4,247.487H196.267
			v-17.067H486.4c4.713,0,8.533,3.82,8.533,8.533S491.113,247.487,486.4,247.487z"/>
    </symbol> 
    
</svg>