<svg width="48" height="34" viewBox="0 0 48 34" fill="none" xmlns="http://www.w3.org/2000/svg">
<path d="M46.5 25.25H45.75V19.25C45.749 18.4547 45.4326 17.6922 44.8702 17.1298C44.3078 16.5674 43.5453 16.251 42.75 16.25V3.5C42.749 2.70467 42.4326 1.94221 41.8702 1.37983C41.3078 0.817447 40.5453 0.501042 39.75 0.5H8.25C7.45467 0.501042 6.69221 0.817447 6.12983 1.37983C5.56745 1.94221 5.25104 2.70467 5.25 3.5V16.25C4.45467 16.251 3.69221 16.5674 3.12983 17.1298C2.56745 17.6922 2.25104 18.4547 2.25 19.25V25.25H1.5C1.30109 25.25 1.11032 25.329 0.96967 25.4697C0.829018 25.6103 0.75 25.8011 0.75 26V29C0.75 29.1989 0.829018 29.3897 0.96967 29.5303C1.11032 29.671 1.30109 29.75 1.5 29.75H2.25V32.75C2.25 32.9489 2.32902 33.1397 2.46967 33.2803C2.61032 33.421 2.80109 33.5 3 33.5H5.25C5.42334 33.5001 5.59134 33.44 5.72537 33.3301C5.8594 33.2202 5.95116 33.0672 5.985 32.8972L6.615 29.75H41.385L42.015 32.8972C42.0488 33.0672 42.1406 33.2202 42.2746 33.3301C42.4087 33.44 42.5767 33.5001 42.75 33.5H45C45.1989 33.5 45.3897 33.421 45.5303 33.2803C45.671 33.1397 45.75 32.9489 45.75 32.75V29.75H46.5C46.6989 29.75 46.8897 29.671 47.0303 29.5303C47.171 29.3897 47.25 29.1989 47.25 29V26C47.25 25.8011 47.171 25.6103 47.0303 25.4697C46.8897 25.329 46.6989 25.25 46.5 25.25ZM6.75 3.5C6.75052 3.10234 6.90872 2.72111 7.18992 2.43992C7.47111 2.15872 7.85233 2.00052 8.25 2H39.75C40.1477 2.00052 40.5289 2.15872 40.8101 2.43992C41.0913 2.72111 41.2495 3.10234 41.25 3.5V16.25H39.75V13.25C39.749 12.4547 39.4326 11.6922 38.8702 11.1298C38.3078 10.5674 37.5453 10.251 36.75 10.25H27.75C26.9547 10.251 26.1922 10.5674 25.6298 11.1298C25.0674 11.6922 24.751 12.4547 24.75 13.25V16.25H23.25V13.25C23.249 12.4547 22.9326 11.6922 22.3702 11.1298C21.8078 10.5674 21.0453 10.251 20.25 10.25H11.25C10.4547 10.251 9.69221 10.5674 9.12983 11.1298C8.56745 11.6922 8.25104 12.4547 8.25 13.25V16.25H6.75V3.5ZM38.25 13.25V16.25H26.25V13.25C26.2505 12.8523 26.4087 12.4711 26.6899 12.1899C26.9711 11.9087 27.3523 11.7505 27.75 11.75H36.75C37.1477 11.7505 37.5289 11.9087 37.8101 12.1899C38.0913 12.4711 38.2495 12.8523 38.25 13.25ZM21.75 13.25V16.25H9.75V13.25C9.75052 12.8523 9.90872 12.4711 10.1899 12.1899C10.4711 11.9087 10.8523 11.7505 11.25 11.75H20.25C20.6477 11.7505 21.0289 11.9087 21.3101 12.1899C21.5913 12.4711 21.7495 12.8523 21.75 13.25ZM3.75 19.25C3.75052 18.8523 3.90872 18.4711 4.18992 18.1899C4.47111 17.9087 4.85233 17.7505 5.25 17.75H42.75C43.1477 17.7505 43.5289 17.9087 43.8101 18.1899C44.0913 18.4711 44.2495 18.8523 44.25 19.25V25.25H3.75V19.25ZM4.635 32H3.75V29.75H5.085L4.635 32ZM44.25 32H43.365L42.915 29.75H44.25V32ZM45.75 28.25H2.25V26.75H45.75V28.25Z" fill="black"/>
</svg>
